<svg id="Layer_1" data-name="Layer 1" xmlns="http://www.w3.org/2000/svg" viewBox="0 0 208.41 86.77"><defs><style>.cls-1{fill:#633f6f;}</style></defs><title>logo</title><path class="cls-1" d="M397.39,271.18l-1.66,5.46H392.1l6.17-19.25h4.48L409,276.63h-3.77l-1.74-5.46Zm5.51-2.66-1.51-4.74c-.37-1.17-.69-2.49-1-3.6h-.06c-.29,1.11-.57,2.46-.91,3.6L398,268.52Z" transform="translate(-310.3 -257.38)"/><path class="cls-1" d="M415.07,262.72v5.77h.51l4.29-5.77H424l-5.54,6.11c1.91.29,3.08,1.8,4,4,.43,1,.94,2.57,1.57,3.77h-3.66a20.73,20.73,0,0,1-1.29-3c-.74-1.89-1.8-2.8-3.63-2.8h-.46v5.77h-3.51V262.72Z" transform="translate(-310.3 -257.38)"/><path class="cls-1" d="M433.86,276.63l-.23-1.54h-.09a5.17,5.17,0,0,1-4.11,1.86,4.13,4.13,0,0,1-4.37-4.14c0-3.51,3.11-5.28,8.25-5.26v-.23c0-.91-.37-2.43-2.83-2.43a7.37,7.37,0,0,0-3.74,1l-.69-2.29a10,10,0,0,1,5-1.23c4.46,0,5.74,2.83,5.74,5.86v5a22.34,22.34,0,0,0,.2,3.34Zm-.46-6.8c-2.49-.06-4.86.49-4.86,2.6a1.84,1.84,0,0,0,2,2,2.85,2.85,0,0,0,2.74-1.91,2.52,2.52,0,0,0,.11-.77Z" transform="translate(-310.3 -257.38)"/><path class="cls-1" d="M452.51,262.72v11.37l1.49.06-.14,6.94h-2.68l-.14-4.46h-9.14l-.17,4.46H439l-.11-6.91,1.26-.09a11.92,11.92,0,0,0,1.37-2.86,17.17,17.17,0,0,0,.71-5v-3.51Zm-7.2,4.51a15.26,15.26,0,0,1-.6,4.31,10.11,10.11,0,0,1-1,2.49h5.43v-8.68h-3.8Z" transform="translate(-310.3 -257.38)"/><path class="cls-1" d="M459.1,270.66c.09,2.51,2.06,3.6,4.28,3.6a10.44,10.44,0,0,0,3.86-.63l.51,2.43a13.1,13.1,0,0,1-4.86.86c-4.51,0-7.17-2.77-7.17-7,0-3.86,2.34-7.48,6.8-7.48s6,3.71,6,6.77a8.6,8.6,0,0,1-.11,1.49Zm6.11-2.46c0-1.29-.54-3.4-2.88-3.4-2.17,0-3.08,2-3.23,3.4Z" transform="translate(-310.3 -257.38)"/><path class="cls-1" d="M471.7,262.72h4.43l2,6.06c.29.91.77,2.46,1.09,3.63h.06c.29-1,.89-2.8,1.34-4.23l1.86-5.46h4.43l.89,13.91h-3.29l-.26-6.06c-.06-1.31-.17-3.23-.2-4.91h-.09c-.46,1.6-.69,2.34-1.43,4.54l-2.23,6.26h-2.54l-2-6.11c-.4-1.31-.91-3.31-1.26-4.63h-.11c0,1.71-.09,3.6-.17,4.94l-.29,6H470.7Z" transform="translate(-310.3 -257.38)"/><path class="cls-1" d="M494.17,262.72v5c0,2.2-.09,3.69-.2,5.63h.09c.74-1.63,1.17-2.66,1.88-4.11l3.43-6.51h4.26v13.91h-3.34v-5c0-2.23.09-3.26.23-5.88h-.11c-.69,1.66-1.14,2.66-1.83,4-1.09,2.06-2.34,4.57-3.54,6.86h-4.2V262.72Z" transform="translate(-310.3 -257.38)"/><path class="cls-1" d="M518.71,276.63h-3.49v-5.51h-1.31a2.74,2.74,0,0,0-2.14.91c-.89.77-1.23,2.26-1.71,3.46a10.26,10.26,0,0,1-.54,1.14h-3.77a7.19,7.19,0,0,0,.86-1.54c.54-1.23,1-3,2.08-4a3.29,3.29,0,0,1,1.66-.94v-.09c-1.66-.17-3.63-1.26-3.63-3.43a3.5,3.5,0,0,1,2.14-3.23,11.36,11.36,0,0,1,4.91-.89,37.3,37.3,0,0,1,4.94.31Zm-3.49-11.74a9.23,9.23,0,0,0-1.74-.14c-1.54,0-3.11.54-3.11,2.09s1.74,2.08,3.11,2.08c.83,0,1.29,0,1.74,0Z" transform="translate(-310.3 -257.38)"/><path class="cls-1" d="M397,288.31V296h8.14v-7.71h3.51v19.25h-3.51v-8.48H397v8.48h-3.51V288.31Z" transform="translate(-310.3 -257.38)"/><path class="cls-1" d="M420.69,307.57l-.23-1.54h-.09a5.16,5.16,0,0,1-4.11,1.86,4.13,4.13,0,0,1-4.37-4.14c0-3.51,3.11-5.28,8.25-5.26v-.23c0-.91-.37-2.43-2.83-2.43a7.36,7.36,0,0,0-3.74,1l-.69-2.29a10,10,0,0,1,5-1.23c4.46,0,5.74,2.83,5.74,5.86v5a22.35,22.35,0,0,0,.2,3.34Zm-.46-6.8c-2.49-.06-4.86.49-4.86,2.6a1.84,1.84,0,0,0,2,2,2.85,2.85,0,0,0,2.74-1.91,2.52,2.52,0,0,0,.11-.77Z" transform="translate(-310.3 -257.38)"/><path class="cls-1" d="M429.86,293.66l2.51,7.46c.29.86.57,1.91.77,2.71h.09c.23-.8.49-1.83.74-2.74l2.17-7.43h3.77l-3.48,9.48c-1.91,5.2-3.2,7.51-4.86,8.94a7.06,7.06,0,0,1-3.68,1.8l-.8-3a6,6,0,0,0,2.06-1,6.13,6.13,0,0,0,1.91-2.2,1.41,1.41,0,0,0,.23-.63,1.48,1.48,0,0,0-.2-.69L426,293.66Z" transform="translate(-310.3 -257.38)"/><path class="cls-1" d="M445.57,293.66V298c0,1.66.6,2.63,2.43,2.63a4.19,4.19,0,0,0,2.37-.77v-6.23h3.51v13.91h-3.51v-5.34h-.06a7.19,7.19,0,0,1-3.63.94c-2.83,0-4.63-1.54-4.63-4.77v-4.74Z" transform="translate(-310.3 -257.38)"/><path class="cls-1" d="M461.39,293.66V299h5.37v-5.31h3.51v13.91h-3.51v-5.86h-5.37v5.86h-3.51V293.66Z" transform="translate(-310.3 -257.38)"/><path class="cls-1" d="M487.52,300.48c0,5.11-3.6,7.4-7.14,7.4-3.94,0-7-2.71-7-7.17s3-7.37,7.2-7.37S487.52,296.25,487.52,300.48Zm-10.48.14c0,2.68,1.31,4.71,3.46,4.71s3.4-2,3.4-4.77c0-2.17-1-4.66-3.37-4.66S477,298.31,477,300.63Z" transform="translate(-310.3 -257.38)"/><path class="cls-1" d="M494,293.66v5c0,2.2-.09,3.69-.2,5.63h.09c.74-1.63,1.17-2.66,1.89-4.11l3.43-6.51h4.26v13.91h-3.34v-5c0-2.23.08-3.26.23-5.88h-.11c-.69,1.66-1.14,2.66-1.83,4-1.09,2.06-2.34,4.57-3.54,6.86h-4.2V293.66Zm1.46-5.68c.06,1.23.57,2.08,1.54,2.08s1.54-.86,1.66-2.08H501a3.7,3.7,0,0,1-4,3.8c-2.57,0-3.71-1.57-3.83-3.8Z" transform="translate(-310.3 -257.38)"/><path class="cls-1" d="M397,319.25v8.25h.57l5.88-8.25h4.26l-7,8.68c2.8.51,4,2.34,4.83,4.77.71,2,1.31,4,2.17,5.8H404a34.54,34.54,0,0,1-1.6-4.37c-.77-2.34-1.8-4-4.54-4H397v8.4h-3.46V319.25Z" transform="translate(-310.3 -257.38)"/><path class="cls-1" d="M410.72,329.21c0-1.83-.06-3.31-.11-4.63h3.08l.17,2.14h.06a5.42,5.42,0,0,1,4.77-2.46c3.2,0,5.85,2.74,5.85,7.08,0,5-3.17,7.46-6.34,7.46a4.57,4.57,0,0,1-3.91-1.86h-.06v7.2h-3.51Zm3.51,3.46a3.61,3.61,0,0,0,.11,1,3.18,3.18,0,0,0,3.08,2.46c2.23,0,3.54-1.86,3.54-4.6,0-2.46-1.2-4.46-3.46-4.46a3.27,3.27,0,0,0-3.14,2.6,3.18,3.18,0,0,0-.14.89Z" transform="translate(-310.3 -257.38)"/><path class="cls-1" d="M436.11,338.5l-.23-1.54h-.09a5.16,5.16,0,0,1-4.11,1.86,4.13,4.13,0,0,1-4.37-4.14c0-3.51,3.11-5.28,8.25-5.26v-.23c0-.91-.37-2.43-2.83-2.43a7.37,7.37,0,0,0-3.74,1l-.69-2.29a10,10,0,0,1,5-1.23c4.46,0,5.74,2.83,5.74,5.86v5a22.33,22.33,0,0,0,.2,3.34Zm-.46-6.8c-2.49-.06-4.86.49-4.86,2.6a1.84,1.84,0,0,0,2,2,2.85,2.85,0,0,0,2.74-1.91,2.52,2.52,0,0,0,.11-.77Z" transform="translate(-310.3 -257.38)"/><path class="cls-1" d="M453.88,338.07a10.17,10.17,0,0,1-3.94.71c-4.34,0-7.17-2.77-7.17-7.08s2.86-7.43,7.74-7.43a8.77,8.77,0,0,1,3.4.66l-.63,2.63a6.19,6.19,0,0,0-2.66-.54,4.51,4.51,0,0,0,0,9,6.88,6.88,0,0,0,2.77-.54Z" transform="translate(-310.3 -257.38)"/><path class="cls-1" d="M470.27,331.41c0,5.11-3.6,7.4-7.14,7.4-3.94,0-7-2.71-7-7.17s3-7.37,7.2-7.37S470.27,327.19,470.27,331.41Zm-10.48.14c0,2.69,1.31,4.71,3.46,4.71s3.4-2,3.4-4.77c0-2.17-1-4.66-3.37-4.66S459.79,329.24,459.79,331.56Z" transform="translate(-310.3 -257.38)"/><path class="cls-1" d="M483.46,324.59v2.71h-4.17v11.2h-3.51V327.3h-4.17v-2.71Z" transform="translate(-310.3 -257.38)"/><path class="cls-1" d="M490,324.59V329a14.39,14.39,0,0,1,2.23-.17c3.06,0,6.17,1.29,6.17,4.77a4.06,4.06,0,0,1-1.71,3.49,10.06,10.06,0,0,1-6,1.57c-1.49,0-3-.09-4.23-.2V324.59Zm0,11.57a11.53,11.53,0,0,0,1.51.08c1.66,0,3.4-.66,3.4-2.54s-1.69-2.46-3.26-2.46a11.84,11.84,0,0,0-1.66.14Zm13.57-11.57V338.5H500V324.59Z" transform="translate(-310.3 -257.38)"/><polygon class="cls-1" points="0 30.52 25.62 4.89 13.9 4.89 0 18.8 0 30.52"/><polygon class="cls-1" points="0 55.86 50.97 4.89 39.25 4.89 0 44.14 0 55.86"/><polygon class="cls-1" points="0 81.21 76.32 4.89 64.6 4.89 0 69.49 0 81.21"/></svg>